<svg width="80" height="80" viewBox="0 0 80 80" fill="none" xmlns="http://www.w3.org/2000/svg">
<path d="M80 80H0V0H80V80Z" fill="#FEC478"/>
<path d="M80 80H40V0H80V80Z" fill="#FEA832"/>
<path d="M75.3125 75.3125H4.6875V4.6875H75.3125V75.3125Z" fill="#994C0F"/>
<path d="M75.3125 75.3125H40V4.6875H75.3125V75.3125Z" fill="#713708"/>
<path d="M32.4222 28.375H36.9972L47.1222 55H41.7972L39.3222 48.3625H30.0222L27.5847 55H22.2597L32.4222 28.375ZM38.3847 44.725L34.7097 34.2625L30.8847 44.725H38.3847Z" fill="#FEC478"/>
<path d="M49.5597 32.6125V27.625H54.5845V32.6125H49.5597ZM49.5597 55V35.35H54.5845V55H49.5597Z" fill="#FEA832"/>
<path d="M40 36.2714V50.1805L41.7972 55H47.1222L40 36.2714Z" fill="#FEA832"/>
<path d="M80 80H0V0H80V80Z" fill="#FEC478"/>
<path d="M80 80H40V0H80V80Z" fill="#FEA832"/>
<path d="M75.3125 75.3125H4.6875V4.6875H75.3125V75.3125Z" fill="#994C0F"/>
<path d="M75.3125 75.3125H40V4.6875H75.3125V75.3125Z" fill="#713708"/>
<path d="M32.4222 28.375H36.9972L47.1222 55H41.7972L39.3222 48.3625H30.0222L27.5847 55H22.2597L32.4222 28.375ZM38.3847 44.725L34.7097 34.2625L30.8847 44.725H38.3847Z" fill="#FEC478"/>
<path d="M49.5597 32.6125V27.625H54.5845V32.6125H49.5597ZM49.5597 55V35.35H54.5845V55H49.5597Z" fill="#FEA832"/>
<path d="M40 36.2714V50.1805L41.7972 55H47.1222L40 36.2714Z" fill="#FEA832"/>
</svg>
