<svg width="80" height="80" viewBox="0 0 80 80" fill="none" xmlns="http://www.w3.org/2000/svg">
<g clip-path="url(#clip0)">
<path d="M5.03718 2.64832L10.2293 69.0726C10.3073 70.0701 10.9824 70.9207 11.9362 71.2231L39.2575 79.8852C39.7406 80.0383 40.2593 80.0383 40.7425 79.8852L68.0638 71.2231C69.0175 70.9207 69.6927 70.0701 69.7706 69.0726L74.9628 2.64832C75.0745 1.22023 73.9458 0 72.5135 0H7.48667C6.05434 0 4.92569 1.22023 5.03718 2.64832ZM61.6479 23.2576H27.8096L28.8308 32.6746H60.9119L58.8132 59.5214L40.0001 65.486L21.1869 59.5214L20.0905 45.4956H29.9651V52.3754L40.264 55.1395L50.5012 52.3754L51.2954 41.4109H19.7712L17.6782 14.6345H62.3217L61.6479 23.2576Z" fill="#FC490B"/>
</g>
<defs>
<clipPath id="clip0">
<rect width="80" height="80" fill="white"/>
</clipPath>
</defs>
</svg>
