<svg width="80" height="80" viewBox="0 0 80 80" fill="none" xmlns="http://www.w3.org/2000/svg">
<path d="M80 80H0V0H80V80Z" fill="#F8D9FF"/>
<path d="M80 80H40V0H80V80Z" fill="#F3C0FF"/>
<path d="M75.3125 75.3125H4.6875V4.6875H75.3125V75.3125Z" fill="#723B7F"/>
<path d="M75.3125 75.3125H40V4.6875H75.3125V75.3125Z" fill="#5C3066"/>
<path d="M24.5219 55V28.375H35.8094C40.9756 28.375 44.2844 33.125 44.2844 37.225C44.2844 42.0573 40.6111 46.075 35.9969 46.075H29.6969V55H24.5219ZM29.697 41.5375H35.697C37.5123 41.5375 39.0345 39.8438 39.0345 37.225C39.0345 34.975 37.6684 32.9125 35.472 32.9125H29.697V41.5375Z" fill="#F8D9FF"/>
<path d="M59.0964 39.7C54.6761 39.7 52.9464 41.9875 52.4214 43.1125V55H47.3964V35.35H52.0089V39.55C52.3588 38.875 54.5589 34.6485 59.0964 35.125V39.7Z" fill="#F3C0FF"/>
<path d="M40 29.5634V44.9733C42.5642 43.4558 44.2845 40.5314 44.2845 37.225C44.2845 34.3839 42.6947 31.232 40 29.5634Z" fill="#F3C0FF"/>
</svg>
