<svg width="80" height="80" viewBox="0 0 80 80" fill="none" xmlns="http://www.w3.org/2000/svg">
<path d="M80 40C80 45.2114 79.0041 50.1894 77.1902 54.7559C76.2203 57.1984 75.017 59.5233 73.6064 61.7012C71.8497 64.418 69.7713 66.9078 67.4269 69.1152C66.0537 70.4098 64.5909 71.6066 63.0464 72.6972C56.5322 77.298 48.5828 80 40 80C31.4172 80 23.4678 77.298 16.9534 72.6972C15.0203 71.3323 13.2147 69.8025 11.5575 68.1241C4.41141 60.8995 0 50.9633 0 40C0 29.0367 4.41141 19.1005 11.5575 11.8759C13.3127 10.0997 15.2342 8.48812 17.2962 7.06453C23.7453 2.60891 31.5673 0 40 0C48.4327 0 56.2547 2.60891 62.7037 7.06453C64.2792 8.15031 65.7716 9.34859 67.1706 10.6466C69.6212 12.9127 71.7861 15.4841 73.6066 18.2987C75.0172 20.4767 76.2205 22.8016 77.1903 25.2441C79.0041 29.8106 80 34.7886 80 40Z" fill="#E4BA42"/>
<path d="M61.1016 36.4016C59.9883 33.1728 55.4233 33.1728 54.5328 35.8448C53.6422 38.5169 56.6483 40.0755 61.3244 41.6344C66.0005 43.1931 68.8953 47.3127 68.3386 50.9866C67.7819 54.6605 66.2231 59.4481 56.9824 59.4481C51.2069 59.4481 47.9972 55.8383 46.402 53.1311L51.6381 49.9845C51.6381 49.9845 53.4195 53.77 56.7595 53.77C60.0997 53.77 61.4356 52.6567 61.4356 50.0959C61.4356 46.9786 50.6359 45.8653 48.9659 40.5211C47.2959 35.1769 49.5227 27.6061 57.3161 28.1627C62.1872 28.5106 64.927 30.9025 66.297 32.6475L61.1016 36.4016Z" fill="#F2F2F2"/>
<path d="M36.8303 28.7195C36.8303 28.7195 36.8303 47.5353 36.8303 50.0961C36.8303 52.6567 34.6036 53.993 32.3769 53.5475C30.1501 53.1022 29.1481 50.4302 29.1481 50.4302L24.0267 53.8816C24.0267 53.8816 25.14 59.003 32.1542 59.4484C39.1684 59.8938 43.1764 55.663 43.1764 52.1002C43.1764 48.5373 43.1764 28.7195 43.1764 28.7195H36.8303Z" fill="#F2F2F2"/>
<path d="M11.5575 7.06453V68.1241C13.2147 69.8025 15.0203 71.3322 16.9534 72.6972H63.0465C64.5911 71.6066 66.0539 70.4098 67.427 69.1151H15.1395V10.6466H73.6064V61.7012C75.017 59.5233 76.2203 57.1984 77.1901 54.7559V7.06453H11.5575Z" fill="#F2F2F2"/>
<path d="M13.7273 59.3372C17.2322 59.3372 20.0734 56.4959 20.0734 52.9911C20.0734 49.4862 17.2322 46.645 13.7273 46.645C10.2225 46.645 7.38126 49.4862 7.38126 52.9911C7.38126 56.4959 10.2225 59.3372 13.7273 59.3372Z" fill="#3F4A43"/>
</svg>
