<svg width="80" height="80" viewBox="0 0 80 80" fill="none" xmlns="http://www.w3.org/2000/svg">
<path d="M80 80H0V0H80V80Z" fill="#CCEFFF"/>
<path d="M80 80H40V0H80V80Z" fill="#ACE3FC"/>
<path d="M75.3125 75.3125H4.6875V4.6875H75.3125V75.3125Z" fill="#0C61C6"/>
<path d="M75.3125 75.3125H40V4.6875H75.3125V75.3125Z" fill="#0A4EAF"/>
<path d="M22.0097 55V28.375H33.2972C38.4634 28.375 41.7722 33.125 41.7722 37.225C41.7722 42.0573 38.0989 46.075 33.4847 46.075H27.1847V55H22.0097ZM27.1847 41.5375H33.1847C35 41.5375 36.5222 39.8438 36.5222 37.225C36.5222 34.975 35.1561 32.9125 32.9597 32.9125H27.1847V41.5375Z" fill="#CCEFFF"/>
<path d="M52.3092 55.375C47.7734 55.375 44.5467 53.3125 43.4217 52.3375L45.2967 49.1875C46.4967 50.0376 49.2578 51.775 52.1967 51.775C54.1016 51.775 55.4217 50.9765 55.4217 49.6C55.4217 47.9101 52.6338 47.3629 51.1092 46.9375C49.8342 46.5876 44.0967 45.7812 44.0967 41.4625C44.0967 37.3047 47.7148 34.975 51.8217 34.975C56.1328 34.975 58.4341 36.7251 59.5092 37.675L57.4842 40.7125C56.4841 39.9625 54.2578 38.5375 51.7842 38.5375C49.9609 38.5375 48.7842 39.3164 48.7842 40.75C48.7842 42.539 51.9214 43.0503 52.6467 43.225C53.9967 43.5753 60.2592 44.5312 60.2592 49.15C60.2592 54.6094 54.7591 55.375 52.3092 55.375Z" fill="#ACE3FC"/>
<path d="M40 31.9315V42.6833C41.1111 41.172 41.7723 39.2723 41.7723 37.2248C41.7723 35.4345 41.1411 33.5203 40 31.9315Z" fill="#ACE3FC"/>
</svg>
